HIERARCHY
ROOT newVegas:Hips
{
	OFFSET 0.000000 96.479958 0.000000
	CHANNELS 6 Xposition Yposition Zposition Xrotation Yrotation Zrotation
	JOINT newVegas:Pelvis
	{
		OFFSET 0.000000 0.000000 0.000000
		CHANNELS 3 Xrotation Yrotation Zrotation
		JOINT newVegas:LeftUpLeg
		{
			OFFSET 18.735201 -5.666702 -4.541200
			CHANNELS 3 Xrotation Yrotation Zrotation
			JOINT newVegas:LeftLeg
			{
				OFFSET -0.021200 -31.938179 0.493100
				CHANNELS 3 Xrotation Yrotation Zrotation
				JOINT newVegas:LeftFoot
				{
					OFFSET 0.021200 -31.938179 -4.336299
					CHANNELS 3 Xrotation Yrotation Zrotation
					JOINT newVegas:LeftToeBase
					{
						OFFSET 0.943001 -26.722000 15.023500
						CHANNELS 3 Xrotation Yrotation Zrotation
						End Site
						{
							OFFSET 0.000000 30.670183 0.000000
						}
					}
				}
				JOINT newVegas:Left_PantLeg
				{
					OFFSET 0.663870 -9.044666 -1.108900
					CHANNELS 3 Xrotation Yrotation Zrotation
					End Site
					{
						OFFSET 1.415995 20.635357 0.000000
					}
				}
			}
		}
		JOINT newVegas:RightUpLeg
		{
			OFFSET -18.735201 -5.666702 -4.541200
			CHANNELS 3 Xrotation Yrotation Zrotation
			JOINT newVegas:RightLeg
			{
				OFFSET 0.018946 -31.938133 0.493100
				CHANNELS 3 Xrotation Yrotation Zrotation
				JOINT newVegas:RightFoot
				{
					OFFSET -0.018946 -31.938126 -4.336299
					CHANNELS 3 Xrotation Yrotation Zrotation
					JOINT newVegas:RightToeBase
					{
						OFFSET -0.943001 -26.722004 15.023500
						CHANNELS 3 Xrotation Yrotation Zrotation
						End Site
						{
							OFFSET 0.000000 30.670187 0.000000
						}
					}
				}
				JOINT newVegas:Right_PantLeg
				{
					OFFSET -0.661674 -9.044716 -1.108900
					CHANNELS 3 Xrotation Yrotation Zrotation
					End Site
					{
						OFFSET -1.415958 20.635269 0.000000
					}
				}
			}
		}
	}
	JOINT newVegas:Spine
	{
		OFFSET 0.000000 10.199997 -0.299500
		CHANNELS 3 Xrotation Yrotation Zrotation
		JOINT newVegas:Spine1
		{
			OFFSET 0.000000 11.900002 -1.516600
			CHANNELS 3 Xrotation Yrotation Zrotation
			JOINT newVegas:Spine2
			{
				OFFSET 0.000000 13.600006 -2.842500
				CHANNELS 3 Xrotation Yrotation Zrotation
				JOINT newVegas:Neck
				{
					OFFSET 0.000000 9.624100 -2.890100
					CHANNELS 3 Xrotation Yrotation Zrotation
					JOINT newVegas:Head
					{
						OFFSET 0.000000 14.068802 -1.351900
						CHANNELS 3 Xrotation Yrotation Zrotation
						JOINT newVegas:Hair_Back
						{
							OFFSET 0.000000 3.231903 -17.524799
							CHANNELS 3 Xrotation Yrotation Zrotation
							End Site
							{
								OFFSET 0.000000 19.849884 0.000000
							}
						}
						JOINT newVegas:Hair_Front
						{
							OFFSET 0.000000 31.260406 4.573800
							CHANNELS 3 Xrotation Yrotation Zrotation
							JOINT newVegas:Hair_Front1
							{
								OFFSET 0.000000 2.284103 11.993300
								CHANNELS 3 Xrotation Yrotation Zrotation
								JOINT newVegas:Hair_Front2
								{
									OFFSET 0.000000 2.284103 11.993300
									CHANNELS 3 Xrotation Yrotation Zrotation
									End Site
									{
										OFFSET 0.000000 12.208862 0.000000
									}
								}
							}
						}
						JOINT newVegas:Jowel
						{
							OFFSET 0.000000 -7.458206 6.864100
							CHANNELS 3 Xrotation Yrotation Zrotation
							End Site
							{
								OFFSET 0.000000 19.849884 0.000000
							}
						}
					}
				}
				JOINT newVegas:LeftShoulder
				{
					OFFSET 15.263000 10.923401 -0.547700
					CHANNELS 3 Xrotation Yrotation Zrotation
					JOINT newVegas:LeftArm
					{
						OFFSET 25.438599 -2.830597 -13.032500
						CHANNELS 3 Xrotation Yrotation Zrotation
						JOINT newVegas:LeftForeArm
						{
							OFFSET 29.960503 0.000000 0.000000
							CHANNELS 3 Xrotation Yrotation Zrotation
							JOINT newVegas:LeftHand
							{
								OFFSET 27.849251 0.000000 0.000000
								CHANNELS 3 Xrotation Yrotation Zrotation
								JOINT newVegas:LeftHandThumb1
								{
									OFFSET 4.487587 -3.305161 6.305391
									CHANNELS 3 Xrotation Yrotation Zrotation
									JOINT newVegas:LeftHandThumb2
									{
										OFFSET 5.480453 -3.164139 3.164143
										CHANNELS 3 Xrotation Yrotation Zrotation
										JOINT newVegas:LeftHandThumb3
										{
											OFFSET 5.159721 -2.978973 2.978967
											CHANNELS 3 Xrotation Yrotation Zrotation
											End Site
											{
												OFFSET 2.494507 5.926697 1.738678
											}
										}
									}
								}
								JOINT newVegas:LeftHandIndex1
								{
									OFFSET 18.578728 -0.527832 5.208049
									CHANNELS 3 Xrotation Yrotation Zrotation
									JOINT newVegas:LeftHandIndex2
									{
										OFFSET 3.192009 0.000000 0.000000
										CHANNELS 3 Xrotation Yrotation Zrotation
										JOINT newVegas:LeftHandIndex3
										{
											OFFSET 3.835129 0.000000 0.000000
											CHANNELS 3 Xrotation Yrotation Zrotation
											End Site
											{
												OFFSET -0.034599 3.816971 0.371180
											}
										}
									}
								}
								JOINT newVegas:LeftHandMiddle1
								{
									OFFSET 18.476105 0.000000 0.000000
									CHANNELS 3 Xrotation Yrotation Zrotation
									JOINT newVegas:LeftHandMiddle2
									{
										OFFSET 3.324875 0.000000 0.000000
										CHANNELS 3 Xrotation Yrotation Zrotation
										JOINT newVegas:LeftHandMiddle3
										{
											OFFSET 4.596550 0.000000 0.000000
											CHANNELS 3 Xrotation Yrotation Zrotation
											End Site
											{
												OFFSET 0.057701 4.578827 0.399218
											}
										}
									}
								}
								JOINT newVegas:LeftHandRing1
								{
									OFFSET 17.732719 0.121887 -4.201567
									CHANNELS 3 Xrotation Yrotation Zrotation
									JOINT newVegas:LeftHandRing2
									{
										OFFSET 2.733170 0.000000 0.000000
										CHANNELS 3 Xrotation Yrotation Zrotation
										JOINT newVegas:LeftHandRing3
										{
											OFFSET 3.178268 0.000000 0.000000
											CHANNELS 3 Xrotation Yrotation Zrotation
											End Site
											{
												OFFSET 0.119102 3.170624 0.185394
											}
										}
									}
								}
								JOINT newVegas:LeftHandPinky1
								{
									OFFSET 15.989624 -0.606689 -7.535461
									CHANNELS 3 Xrotation Yrotation Zrotation
									JOINT newVegas:LeftHandPinky2
									{
										OFFSET 2.538986 0.000000 0.000000
										CHANNELS 3 Xrotation Yrotation Zrotation
										JOINT newVegas:LeftHandPinky3
										{
											OFFSET 2.593102 0.000000 0.000000
											CHANNELS 3 Xrotation Yrotation Zrotation
											End Site
											{
												OFFSET -0.150902 2.584198 0.152708
											}
										}
									}
								}
							}
							JOINT newVegas:Left_Sleeve
							{
								OFFSET 0.267448 -0.649796 0.577675
								CHANNELS 3 Xrotation Yrotation Zrotation
								End Site
								{
									OFFSET 0.000000 15.991241 0.000000
								}
							}
							JOINT newVegas:Left_CapeC
							{
								OFFSET 15.715958 -8.608795 -6.935905
								CHANNELS 3 Xrotation Yrotation Zrotation
								JOINT newVegas:Left_CapeC1
								{
									OFFSET 0.000000 -8.688499 0.000000
									CHANNELS 3 Xrotation Yrotation Zrotation
									End Site
									{
										OFFSET 0.000000 8.688499 0.000000
									}
								}
							}
						}
						JOINT newVegas:Left_CapeB
						{
							OFFSET 26.118385 -8.608795 -7.079235
							CHANNELS 3 Xrotation Yrotation Zrotation
							JOINT newVegas:Left_CapeB1
							{
								OFFSET 0.000000 -8.688499 0.000000
								CHANNELS 3 Xrotation Yrotation Zrotation
								End Site
								{
									OFFSET 0.000000 8.688499 0.000000
								}
							}
						}
						JOINT newVegas:Left_CapeA
						{
							OFFSET 5.115639 -8.608795 -10.395809
							CHANNELS 3 Xrotation Yrotation Zrotation
							JOINT newVegas:Left_CapeA1
							{
								OFFSET 0.000000 -8.688499 0.000000
								CHANNELS 3 Xrotation Yrotation Zrotation
								End Site
								{
									OFFSET 0.000000 8.688499 0.000000
								}
							}
						}
					}
				}
				JOINT newVegas:RightShoulder
				{
					OFFSET -15.263000 10.923401 -0.547700
					CHANNELS 3 Xrotation Yrotation Zrotation
					JOINT newVegas:RightArm
					{
						OFFSET -25.438599 -2.830597 -13.032500
						CHANNELS 3 Xrotation Yrotation Zrotation
						JOINT newVegas:RightForeArm
						{
							OFFSET -29.960503 0.000000 0.000000
							CHANNELS 3 Xrotation Yrotation Zrotation
							JOINT newVegas:RightHand
							{
								OFFSET -27.849251 0.000000 0.000000
								CHANNELS 3 Xrotation Yrotation Zrotation
								JOINT newVegas:RightHandThumb1
								{
									OFFSET -4.487587 -3.305161 6.305391
									CHANNELS 3 Xrotation Yrotation Zrotation
									JOINT newVegas:RightHandThumb2
									{
										OFFSET -5.480453 -3.164139 3.164143
										CHANNELS 3 Xrotation Yrotation Zrotation
										JOINT newVegas:RightHandThumb3
										{
											OFFSET -5.159721 -2.978973 2.978967
											CHANNELS 3 Xrotation Yrotation Zrotation
											End Site
											{
												OFFSET -2.494507 5.926697 1.738678
											}
										}
									}
								}
								JOINT newVegas:RightHandIndex1
								{
									OFFSET -18.578728 -0.527832 5.208049
									CHANNELS 3 Xrotation Yrotation Zrotation
									JOINT newVegas:RightHandIndex2
									{
										OFFSET -3.192009 0.000000 0.000000
										CHANNELS 3 Xrotation Yrotation Zrotation
										JOINT newVegas:RightHandIndex3
										{
											OFFSET -3.835129 0.000000 0.000000
											CHANNELS 3 Xrotation Yrotation Zrotation
											End Site
											{
												OFFSET 0.034599 3.816971 0.371180
											}
										}
									}
								}
								JOINT newVegas:RightHandMiddle1
								{
									OFFSET -18.476105 0.000000 0.000000
									CHANNELS 3 Xrotation Yrotation Zrotation
									JOINT newVegas:RightHandMiddle2
									{
										OFFSET -3.324875 0.000000 0.000000
										CHANNELS 3 Xrotation Yrotation Zrotation
										JOINT newVegas:RightHandMiddle3
										{
											OFFSET -4.596550 0.000000 0.000000
											CHANNELS 3 Xrotation Yrotation Zrotation
											End Site
											{
												OFFSET -0.057701 4.578827 0.399218
											}
										}
									}
								}
								JOINT newVegas:RightHandRing1
								{
									OFFSET -17.732719 0.121887 -4.201567
									CHANNELS 3 Xrotation Yrotation Zrotation
									JOINT newVegas:RightHandRing2
									{
										OFFSET -2.733170 0.000000 0.000000
										CHANNELS 3 Xrotation Yrotation Zrotation
										JOINT newVegas:RightHandRing3
										{
											OFFSET -3.178268 0.000000 0.000000
											CHANNELS 3 Xrotation Yrotation Zrotation
											End Site
											{
												OFFSET -0.119102 3.170624 0.185394
											}
										}
									}
								}
								JOINT newVegas:RightHandPinky1
								{
									OFFSET -15.989624 -0.606689 -7.535461
									CHANNELS 3 Xrotation Yrotation Zrotation
									JOINT newVegas:RightHandPinky2
									{
										OFFSET -2.538986 0.000000 0.000000
										CHANNELS 3 Xrotation Yrotation Zrotation
										JOINT newVegas:RightHandPinky3
										{
											OFFSET -2.593102 0.000000 0.000000
											CHANNELS 3 Xrotation Yrotation Zrotation
											End Site
											{
												OFFSET 0.150902 2.584198 0.152708
											}
										}
									}
								}
							}
							JOINT newVegas:Right_CapeC
							{
								OFFSET -15.715958 -8.608795 -6.935905
								CHANNELS 3 Xrotation Yrotation Zrotation
								JOINT newVegas:Right_CapeC1
								{
									OFFSET 0.000000 -8.688499 0.000000
									CHANNELS 3 Xrotation Yrotation Zrotation
									End Site
									{
										OFFSET 0.000000 8.688499 0.000000
									}
								}
							}
							JOINT newVegas:Right_Sleeve
							{
								OFFSET -0.267448 -0.649994 0.577675
								CHANNELS 3 Xrotation Yrotation Zrotation
								End Site
								{
									OFFSET 0.000000 15.991302 0.000000
								}
							}
						}
						JOINT newVegas:Right_CapeA
						{
							OFFSET -5.115540 -8.608795 -10.395824
							CHANNELS 3 Xrotation Yrotation Zrotation
							JOINT newVegas:Right_CapeA1
							{
								OFFSET 0.000000 -8.688499 0.000000
								CHANNELS 3 Xrotation Yrotation Zrotation
								End Site
								{
									OFFSET 0.000000 8.688499 0.000000
								}
							}
						}
						JOINT newVegas:Right_CapeB
						{
							OFFSET -26.118187 -8.608795 -7.079266
							CHANNELS 3 Xrotation Yrotation Zrotation
							JOINT newVegas:Right_CapeB1
							{
								OFFSET 0.000000 -8.688499 0.000000
								CHANNELS 3 Xrotation Yrotation Zrotation
								End Site
								{
									OFFSET 0.000000 8.688499 0.000000
								}
							}
						}
					}
				}
				JOINT newVegas:Left_Collar
				{
					OFFSET 18.625099 8.655502 8.828100
					CHANNELS 3 Xrotation Yrotation Zrotation
					JOINT newVegas:Left_Collar1
					{
						OFFSET 14.783401 10.540405 -1.259500
						CHANNELS 3 Xrotation Yrotation Zrotation
						End Site
						{
							OFFSET 0.000000 18.199875 0.000000
						}
					}
				}
				JOINT newVegas:Collar_Back
				{
					OFFSET 0.000000 15.630707 -20.132601
					CHANNELS 3 Xrotation Yrotation Zrotation
					End Site
					{
						OFFSET 0.000000 22.523010 0.000000
					}
				}
				JOINT newVegas:Left_Peck
				{
					OFFSET 17.239599 -5.132599 25.482599
					CHANNELS 3 Xrotation Yrotation Zrotation
					End Site
					{
						OFFSET 0.000000 22.523010 0.000000
					}
				}
				JOINT newVegas:Right_Peck
				{
					OFFSET -17.239599 -5.132202 25.482599
					CHANNELS 3 Xrotation Yrotation Zrotation
					End Site
					{
						OFFSET 0.000000 22.523010 0.000000
					}
				}
				JOINT newVegas:Right_Collar
				{
					OFFSET -18.625099 8.655792 8.828100
					CHANNELS 3 Xrotation Yrotation Zrotation
					JOINT newVegas:Right_Collar1
					{
						OFFSET -14.783401 10.539993 -1.259500
						CHANNELS 3 Xrotation Yrotation Zrotation
						End Site
						{
							OFFSET 0.000000 18.199631 0.000000
						}
					}
				}
			}
		}
		JOINT newVegas:Belly
		{
			OFFSET 0.000000 -6.540398 9.014299
			CHANNELS 3 Xrotation Yrotation Zrotation
			End Site
			{
				OFFSET 0.000000 11.566666 0.000000
			}
		}
	}
	JOINT newVegas:ElvisFacialAnim_Joint
	{
		OFFSET 1.000000 -95.330101 -8.825800
		CHANNELS 3 Xrotation Yrotation Zrotation
		End Site
		{
			OFFSET 0.000000 35.315800 0.000000
		}
	}
}
MOTION
Frames: 4
Frame Time: 0.016667
0.240848 84.498055 2.944489 -14.105905 4.532477 -0.104806 0.000001 0.000000 -0.000000 -21.660914 -4.927548 16.759227 61.522328 -1.785230 0.174997 -24.860495 -0.324718 -14.605596 -0.000000 -0.000000 -0.000000 -0.000003 0.000000 0.000001 -13.958682 -8.105647 -18.417723 59.780821 1.435386 -0.212857 -30.094940 -5.208992 13.131201 0.000000 0.000000 -0.000000 -0.000003 0.000000 -0.000001 20.016248 -0.089242 0.603570 6.967313 -0.338752 0.679832 6.967508 -0.337004 0.677442 -2.448864 -0.257673 -0.077651 -2.448858 -0.257673 -0.077650 0.000000 0.000000 -0.000000 -2.448792 -0.257672 -0.077650 -2.448930 -0.257671 -0.077651 0.000001 -0.000000 -0.000000 0.000000 0.000000 -0.000000 3.082227 -9.945128 -6.811321 -13.959244 -7.908229 -60.295243 69.634284 -63.509107 71.597103 17.167911 -2.491264 -13.648285 2.689266 3.159869 6.593315 -0.080947 21.143655 -2.540008 0.000001 0.000000 -0.000004 -10.621197 2.937276 -19.267721 1.676651 6.185723 -21.756492 -0.000001 -0.000003 -0.000001 -13.823038 9.936966 -22.469217 6.049012 4.246392 -31.221942 -0.000001 -0.000000 -0.000001 -10.744664 8.325272 -36.571080 3.038183 0.221615 -39.078722 -0.000001 -0.000000 -0.000001 -11.942443 9.095590 -39.265456 4.640682 -6.164106 -45.289294 -0.000001 0.000000 -0.000000 0.000002 -0.000001 -0.000000 0.000002 -0.000001 -0.000000 0.000001 -0.000001 -0.000000 -0.000001 0.000000 -0.000002 -0.000000 0.000000 -0.000002 -0.000001 0.000000 -0.000002 -0.000000 0.000000 -0.000002 8.709554 -2.418516 18.823129 -21.494467 12.934315 56.855495 76.344159 65.517005 -70.724594 6.442916 -2.140719 3.544942 2.153179 -3.555298 -6.484340 -0.079164 -21.145998 2.540878 0.000005 0.000003 -0.000006 -10.621234 -2.937069 19.269094 1.668966 -6.188787 21.755249 0.000000 -0.000001 0.000000 -13.688448 -10.244141 24.164190 6.044749 -4.250320 31.223342 0.000003 -0.000001 -0.000000 -10.744601 -8.325827 36.570018 3.037668 -0.220792 39.079313 0.000000 -0.000003 -0.000000 -11.872853 -9.179280 39.251987 4.640929 6.162611 45.288836 0.000001 0.000002 0.000000 -0.000004 -0.000000 0.000000 -0.000000 0.000000 0.000001 -0.000004 -0.000001 -0.000000 -0.000000 0.000000 0.000000 -0.000000 0.000000 0.000002 -0.000000 0.000000 0.000000 -0.000000 0.000000 0.000002 0.000000 -0.000000 -0.000000 0.000000 -0.000000 -0.000000 0.000000 -0.000000 -0.000000 0.000000 -0.000000 -0.000000 0.000000 -0.000000 -0.000000 0.000000 -0.000000 -0.000000 0.000000 -0.000000 -0.000000 -0.000001 0.000000 0.000000 0.000001 0.000000 -0.000000 
0.256068 84.458977 2.993456 -14.111147 4.556172 -0.126640 0.000000 -0.000000 -0.000000 -21.688576 -4.950421 16.794084 61.675283 -1.775187 0.175411 -24.983229 -0.363804 -14.617238 -0.000000 -0.000000 -0.000000 0.000001 -0.000000 0.000001 -13.919904 -8.126054 -18.422875 59.843167 1.439520 -0.213355 -30.182374 -5.214339 13.158385 -0.000000 0.000000 0.000000 0.000002 -0.000001 -0.000001 20.015381 -0.084925 0.616300 6.967177 -0.335989 0.689695 6.967397 -0.333837 0.687153 -2.479350 -0.259876 -0.088201 -2.479351 -0.259876 -0.088201 -0.000002 -0.000000 -0.000000 -2.479287 -0.259876 -0.088201 -2.479356 -0.259877 -0.088201 0.000001 0.000000 -0.000000 -0.000002 -0.000000 -0.000000 2.956829 -10.038397 -7.341127 -14.073638 -7.895410 -59.003668 69.357265 -63.656093 70.461208 17.123238 -2.624933 -13.215291 2.689256 3.159882 6.593337 -0.287842 20.662222 -2.531891 0.000001 0.000000 -0.000006 -11.138172 2.712235 -18.389668 1.552165 5.861872 -19.735862 -0.000001 0.000001 0.000000 -13.879095 10.042387 -21.846823 5.907028 4.051385 -29.917226 -0.000001 0.000003 -0.000000 -10.653149 8.348591 -36.293334 2.916247 0.076512 -38.156763 -0.000001 0.000003 0.000001 -11.616301 8.724565 -38.572998 4.514738 -6.309777 -43.933344 0.000001 -0.000002 0.000001 -0.000002 -0.000001 -0.000000 -0.000002 -0.000001 -0.000000 -0.000002 -0.000001 0.000000 0.000001 -0.000001 -0.000000 0.000001 0.000000 -0.000000 0.000001 -0.000001 -0.000000 0.000001 -0.000001 -0.000000 8.710146 -2.421087 18.860184 -21.489472 12.863795 56.693681 76.539298 65.641779 -70.847476 6.461543 -2.179867 3.507930 2.153199 -3.555332 -6.484359 -0.610726 -20.410523 2.900129 -0.000000 0.000002 -0.000004 -10.520685 -3.668413 20.527768 1.742415 -6.421460 23.270917 0.000000 0.000000 0.000000 -12.798052 -11.730797 26.093215 7.096433 -4.803680 37.106369 -0.000002 -0.000001 -0.000001 -10.279108 -10.017706 38.435636 3.702685 -0.867331 43.457765 -0.000001 -0.000001 -0.000002 -11.226703 -10.556393 39.654173 5.236493 5.736023 47.984777 0.000002 -0.000000 -0.000001 -0.000001 0.000000 0.000000 -0.000001 -0.000000 0.000000 -0.000001 0.000000 -0.000000 0.000001 0.000001 -0.000001 0.000001 0.000001 0.000001 0.000001 0.000001 -0.000001 0.000001 0.000001 0.000001 -0.000001 0.000000 -0.000000 -0.000001 0.000000 -0.000000 -0.000001 0.000000 -0.000000 -0.000001 0.000000 -0.000000 -0.000001 0.000000 -0.000000 -0.000001 0.000000 -0.000000 -0.000001 0.000000 -0.000000 -0.000000 -0.000000 -0.000000 0.000000 -0.000000 -0.000000 
0.286211 84.392815 3.080460 -14.124470 4.628281 -0.165036 0.000001 -0.000000 -0.000000 -21.749025 -4.998014 16.854438 61.944119 -1.796930 0.175818 -25.189995 -0.423420 -14.615466 0.000000 0.000000 -0.000000 0.000002 0.000000 0.000001 -13.821890 -8.182131 -18.427888 59.931099 1.440930 -0.214121 -30.336162 -5.237195 13.211269 0.000000 -0.000002 -0.000000 0.000004 0.000000 -0.000000 20.011177 -0.076465 0.641625 6.966026 -0.327721 0.719249 6.966378 -0.324708 0.716456 -2.509902 -0.268114 -0.099401 -2.509910 -0.268112 -0.099401 -0.000001 -0.000000 -0.000000 -2.509915 -0.268113 -0.099401 -2.509842 -0.268115 -0.099400 -0.000001 -0.000000 0.000000 -0.000001 -0.000000 0.000000 2.764797 -10.227419 -8.150476 -14.313654 -7.958063 -56.721835 68.594401 -63.723384 67.966406 16.833741 -3.061348 -12.252569 2.689275 3.159875 6.593340 -0.630854 19.898832 -2.536160 0.000003 -0.000001 -0.000006 -12.168916 1.722888 -16.142754 1.361316 5.271972 -16.144863 0.000000 -0.000000 0.000001 -13.999947 10.170333 -20.576860 5.654363 3.687258 -27.544191 0.000000 -0.000001 -0.000002 -10.488795 8.375473 -35.525747 2.674439 -0.231043 -36.299628 -0.000002 0.000001 -0.000000 -11.042167 8.059849 -37.136179 4.281199 -6.560065 -41.506196 0.000002 0.000002 -0.000001 -0.000001 0.000000 0.000001 -0.000001 0.000000 0.000001 -0.000002 -0.000000 0.000001 -0.000000 -0.000001 -0.000001 0.000000 -0.000001 -0.000001 -0.000000 -0.000001 -0.000001 0.000000 0.000000 -0.000001 8.718473 -2.429205 18.921151 -21.496052 12.656103 56.308288 77.004038 65.942587 -71.153100 6.484109 -2.258956 3.402540 2.153190 -3.555314 -6.484336 -1.483783 -19.373488 3.562834 0.000004 -0.000004 -0.000001 -10.129352 -5.075094 23.066167 1.897887 -6.845652 26.077671 0.000000 -0.000001 -0.000001 -11.051818 -14.266150 29.928301 8.898197 -5.409219 45.950770 0.000001 0.000005 0.000001 -9.577498 -12.642708 41.718570 4.859895 -1.754920 50.235382 0.000000 0.000001 -0.000002 -10.193546 -12.691888 40.965152 6.310975 5.065926 52.618049 -0.000001 0.000001 0.000001 -0.000000 -0.000001 0.000000 0.000000 -0.000001 0.000001 0.000000 -0.000000 -0.000000 0.000001 0.000000 -0.000002 0.000002 0.000000 -0.000000 0.000001 0.000000 -0.000002 0.000002 -0.000000 -0.000000 0.000002 -0.000000 -0.000000 0.000002 -0.000000 -0.000000 0.000002 -0.000000 -0.000000 0.000002 -0.000000 -0.000000 0.000002 -0.000000 -0.000000 0.000002 -0.000000 -0.000000 0.000002 -0.000000 -0.000000 0.000000 -0.000000 -0.000000 0.000001 -0.000000 -0.000000 
0.320243 84.333389 3.159540 -14.144268 4.737265 -0.196764 -0.000001 0.000000 0.000000 -21.808099 -5.105548 16.870525 62.196249 -1.818202 0.176190 -25.368820 -0.448100 -14.610408 -0.000000 -0.000000 -0.000000 0.000001 0.000001 -0.000000 -13.691567 -8.248053 -18.424995 59.991348 1.441363 -0.214588 -30.480918 -5.296081 13.264183 -0.000000 -0.000003 0.000000 -0.000000 -0.000000 -0.000001 20.004268 -0.065131 0.665511 6.959312 -0.313089 0.767879 6.959683 -0.306488 0.764834 -2.508607 -0.283854 -0.100877 -2.508582 -0.283852 -0.100877 0.000002 -0.000000 0.000000 -2.508457 -0.283852 -0.100877 -2.508751 -0.283855 -0.100878 0.000000 -0.000000 -0.000000 0.000002 -0.000000 0.000000 2.605480 -10.449067 -8.667087 -14.613390 -8.282415 -54.611973 67.543850 -63.362545 64.922703 16.132886 -3.862279 -11.017628 2.689268 3.159896 6.593348 -0.900189 19.338176 -2.567405 0.000005 -0.000002 -0.000003 -13.757849 -1.808890 -12.929000 1.209592 4.688509 -12.660388 0.000001 0.000000 -0.000003 -14.161511 10.155887 -19.030994 5.407114 3.296439 -25.125402 -0.000001 -0.000001 -0.000001 -10.326070 8.356975 -34.230886 2.383922 -0.635133 -34.078805 -0.000000 0.000003 -0.000000 -10.519289 7.413655 -35.362533 4.024491 -6.770229 -39.148643 -0.000000 0.000000 -0.000000 0.000005 -0.000000 0.000001 0.000005 -0.000000 0.000001 0.000005 -0.000001 0.000001 -0.000001 0.000000 0.000001 -0.000001 0.000000 0.000001 -0.000001 0.000000 0.000001 -0.000000 -0.000001 0.000001 8.730921 -2.444811 18.974038 -21.553770 12.391526 55.888924 77.539053 66.277267 -71.520612 6.490336 -2.336599 3.273603 2.153195 -3.555325 -6.484351 -2.139637 -18.745794 4.295034 -0.000001 -0.000002 -0.000003 -9.428691 -6.650069 26.075074 2.076164 -7.264218 28.901952 -0.000001 0.000003 -0.000001 -8.933247 -16.558098 34.446495 9.998500 -5.648534 51.048909 -0.000000 -0.000001 0.000002 -9.304914 -14.241868 44.634572 5.737665 -2.268956 54.937739 0.000004 0.000001 0.000002 -9.441460 -13.995657 43.355831 7.329734 4.554882 56.877973 -0.000000 0.000001 0.000001 -0.000002 0.000000 -0.000000 -0.000001 -0.000000 0.000000 -0.000001 0.000000 0.000000 -0.000001 -0.000001 -0.000003 -0.000000 -0.000001 -0.000003 -0.000001 -0.000001 -0.000003 -0.000000 -0.000001 -0.000003 -0.000000 -0.000000 -0.000000 -0.000000 -0.000000 -0.000000 -0.000000 -0.000000 -0.000000 -0.000000 -0.000000 -0.000000 -0.000000 -0.000000 -0.000000 -0.000000 -0.000000 -0.000000 -0.000000 -0.000000 -0.000000 0.000000 -0.000000 -0.000000 -0.000001 0.000000 0.000000 
